<svg width="126" height="21" viewBox="0 0 126 21" fill="none" xmlns="http://www.w3.org/2000/svg">
<g clip-path="url(#clip0_451_326)">
<path d="M55.3342 5.85C55.7712 5.84523 56.2045 5.93156 56.6064 6.10348C56.9931 6.26897 57.3452 6.50586 57.6442 6.80175C57.9414 7.09972 58.1784 7.45207 58.3425 7.83959C58.5155 8.24127 58.6034 8.67444 58.6007 9.11179V12.0579C58.6039 12.4953 58.5159 12.9286 58.3425 13.3301C58.0124 14.1131 57.3894 14.7361 56.6064 15.0662C56.2048 15.2396 55.7716 15.3276 55.3342 15.3245H51.6946C51.2636 15.3262 50.8354 15.2567 50.4271 15.1188C50.0474 14.9894 49.6954 14.7899 49.3893 14.5306C49.0918 14.2766 48.852 13.9618 48.6863 13.6075C48.5135 13.2244 48.4269 12.8081 48.4328 12.3879V12.0579C48.4295 11.7302 48.4913 11.4051 48.6145 11.1014C48.7302 10.8011 48.8916 10.5204 49.0928 10.2692C49.2937 10.0231 49.5406 9.81838 49.8197 9.66658C50.0889 9.51671 50.3917 9.43771 50.6998 9.43701H56.1903V9.01135C56.1916 8.90074 56.1702 8.79103 56.1274 8.68902C56.0847 8.58701 56.0214 8.49487 55.9416 8.4183C55.8621 8.33701 55.7667 8.27297 55.6614 8.23018C55.5561 8.1874 55.443 8.16677 55.3294 8.1696H49.351L50.2215 5.83087H55.3294L55.3342 5.85ZM56.1951 11.4362H51.6228C51.4207 11.433 51.2252 11.5084 51.0776 11.6466C51.0069 11.7049 50.9498 11.7779 50.9101 11.8605C50.8705 11.943 50.8493 12.0333 50.848 12.1249V12.2062C50.84 12.3093 50.8587 12.4127 50.9023 12.5066C50.9458 12.6004 51.0128 12.6814 51.0967 12.7418C51.2716 12.8598 51.479 12.92 51.6898 12.914H55.3294C55.4426 12.9166 55.5552 12.8964 55.6603 12.8544C55.7655 12.8125 55.8612 12.7498 55.9416 12.6701C56.0207 12.593 56.0835 12.5008 56.1263 12.3989C56.169 12.297 56.1908 12.1875 56.1903 12.077V11.4362H56.1951Z" fill="#E2DCC8"/>
<path d="M70.3326 5.84998V12.0292C70.3348 12.468 70.2469 12.9026 70.0744 13.3062C69.9122 13.6975 69.675 14.0533 69.3761 14.3536C69.0838 14.6466 68.7401 14.8833 68.3622 15.0518C67.9596 15.2215 67.5268 15.3078 67.09 15.3053H63.436C62.9992 15.3078 62.5664 15.2215 62.1638 15.0518C61.7689 14.8885 61.4085 14.6515 61.1021 14.3536C60.8038 14.0547 60.5666 13.7006 60.4038 13.3109C60.2313 12.9074 60.1434 12.4728 60.1455 12.034V5.84998H62.5704V12.1248C62.5728 12.3473 62.6623 12.56 62.8197 12.7173C62.977 12.8746 63.1896 12.9641 63.4121 12.9666H67.0661C67.1797 12.9694 67.2927 12.9488 67.3981 12.906C67.5034 12.8632 67.5988 12.7992 67.6783 12.7179C67.7576 12.641 67.8206 12.5488 67.8633 12.4468C67.9061 12.3449 67.9277 12.2354 67.927 12.1248V5.84998H70.3326Z" fill="#E2DCC8"/>
<path d="M77.8939 15.2719H75.2587C74.8217 15.2761 74.3885 15.1898 73.9865 15.0184C73.5997 14.8529 73.2476 14.616 72.9486 14.3201C72.6523 14.0197 72.4153 13.6659 72.2504 13.2775C72.0784 12.8773 71.9921 12.4456 71.9969 12.0101V4.67825L74.4169 3.18127V5.85001H77.7648L76.8896 7.84438H74.4026V12.0101C74.3998 12.1237 74.4204 12.2368 74.4632 12.3421C74.506 12.4474 74.57 12.5428 74.6513 12.6223C74.7284 12.701 74.8208 12.7632 74.9227 12.8052C75.0247 12.8471 75.1341 12.8679 75.2443 12.8662H77.0235L77.8796 15.2575L77.8939 15.2719Z" fill="#E2DCC8"/>
<path d="M86.2971 5.74474C86.7324 5.7424 87.1636 5.82864 87.5645 5.99822C88.3466 6.33388 88.9698 6.9571 89.3054 7.73911C89.475 8.14002 89.5613 8.57123 89.5589 9.00652V11.9622C89.5609 12.3975 89.4746 12.8286 89.3054 13.2296C88.9698 14.0116 88.3466 14.6348 87.5645 14.9705C87.1636 15.1401 86.7324 15.2263 86.2971 15.224H81.8493C81.4125 15.2259 80.9798 15.1397 80.5771 14.9705C80.1902 14.8031 79.8382 14.5646 79.5392 14.2675C79.2425 13.9691 79.0055 13.6169 78.841 13.2296C78.6695 12.8293 78.5832 12.3977 78.5875 11.9622V9.0113C78.5827 8.57578 78.669 8.14407 78.841 7.74389C79.005 7.35495 79.242 7.00103 79.5392 6.70127C79.8382 6.40411 80.1902 6.16564 80.5771 5.99822C80.9798 5.82902 81.4125 5.74281 81.8493 5.74474H86.2971ZM87.1532 8.92521C87.1549 8.81499 87.1342 8.70558 87.0922 8.60363C87.0503 8.50167 86.9881 8.40932 86.9093 8.33216C86.8298 8.25087 86.7345 8.18684 86.6291 8.14405C86.5238 8.10126 86.4108 8.08064 86.2971 8.08346H81.8493C81.6268 8.08595 81.4141 8.17543 81.2568 8.33275C81.0995 8.49008 81.01 8.70274 81.0075 8.92521V12.0387C81.0056 12.1494 81.0267 12.2593 81.0695 12.3614C81.1123 12.4635 81.1759 12.5556 81.2562 12.6318C81.3331 12.7112 81.4253 12.7741 81.5273 12.8169C81.6292 12.8596 81.7387 12.8813 81.8493 12.8805H86.2971C86.4106 12.8822 86.5233 12.8611 86.6285 12.8183C86.7337 12.7756 86.8292 12.7122 86.9093 12.6318C86.9881 12.5546 87.0503 12.4623 87.0922 12.3603C87.1342 12.2584 87.1549 12.149 87.1532 12.0387V8.92521Z" fill="#E2DCC8"/>
<path d="M98.8182 5.81646C99.2221 5.80537 99.6233 5.88563 99.9918 6.05126C100.36 6.21688 100.687 6.4636 100.947 6.77299C101.204 7.07926 101.402 7.43134 101.53 7.81083C101.67 8.21852 101.74 8.64715 101.736 9.07824V12.01C101.738 12.4414 101.654 12.8689 101.49 13.2679C101.326 13.6668 101.084 14.0293 100.779 14.3344C100.482 14.6326 100.129 14.8698 99.7413 15.0327C99.3487 15.2101 98.9238 15.3045 98.493 15.3101H94.3895C93.9537 15.3127 93.5221 15.2247 93.1221 15.0518C92.7271 14.8911 92.3678 14.6538 92.0651 14.3535C91.7601 14.0485 91.5185 13.686 91.3543 13.287C91.1901 12.8881 91.1066 12.4606 91.1086 12.0292V2.07641L93.5334 0.560303V6.29951C93.697 6.1487 93.8866 6.02879 94.0929 5.94559C94.2908 5.86095 94.5042 5.81859 94.7195 5.82124H98.8182V5.81646ZM99.33 8.99694C99.3322 8.88664 99.3117 8.77705 99.2697 8.67502C99.2278 8.57299 99.1653 8.4807 99.0861 8.40389C99.0104 8.32148 98.9189 8.25526 98.817 8.20922C98.715 8.16319 98.6048 8.1383 98.493 8.13606H94.3895C94.1671 8.13732 93.9542 8.22656 93.7973 8.38428C93.6405 8.54201 93.5525 8.75539 93.5525 8.97781V12.0913C93.5519 12.2014 93.5731 12.3105 93.6149 12.4124C93.6568 12.5142 93.7184 12.6067 93.7962 12.6846C93.8741 12.7624 93.9666 12.824 94.0684 12.8659C94.1703 12.9077 94.2794 12.9289 94.3895 12.9283H98.493C98.6062 12.9309 98.7188 12.9106 98.824 12.8687C98.9291 12.8268 99.0248 12.7641 99.1052 12.6844C99.1837 12.6071 99.2458 12.5147 99.2877 12.4128C99.3296 12.3108 99.3505 12.2015 99.3491 12.0913L99.33 8.99694Z" fill="#E2DCC8"/>
<path d="M113.487 5.84998V12.0292C113.489 12.468 113.401 12.9026 113.228 13.3062C113.066 13.6975 112.829 14.0533 112.53 14.3536C112.232 14.6517 111.88 14.8903 111.492 15.0566C111.091 15.2258 110.66 15.312 110.225 15.3101H106.566C106.129 15.3126 105.697 15.2263 105.294 15.0566C104.907 14.8892 104.555 14.6507 104.256 14.3536C103.96 14.0531 103.723 13.6994 103.558 13.3109C103.385 12.9074 103.297 12.4728 103.3 12.034V5.84998H105.724V12.1248C105.727 12.3473 105.816 12.56 105.974 12.7173C106.131 12.8746 106.344 12.9641 106.566 12.9666H110.225C110.338 12.9696 110.45 12.9491 110.555 12.9063C110.659 12.8634 110.754 12.7993 110.832 12.7179C110.913 12.6417 110.976 12.5496 111.019 12.4475C111.062 12.3454 111.083 12.2355 111.081 12.1248V5.84998H113.487Z" fill="#E2DCC8"/>
<path d="M125.448 5.84996V15.6018C125.45 16.1802 125.335 16.7529 125.109 17.2853C124.889 17.7973 124.574 18.263 124.181 18.658C123.784 19.0565 123.313 19.3733 122.794 19.5906C122.263 19.8155 121.692 19.9294 121.115 19.9254H115.663L116.533 17.534H121.115C121.373 17.5342 121.629 17.4821 121.866 17.381C122.324 17.1799 122.688 16.8123 122.885 16.3527C122.99 16.1165 123.044 15.8605 123.042 15.6018V14.8605C122.866 14.9994 122.671 15.1137 122.464 15.2001C122.267 15.2821 122.055 15.3243 121.842 15.3244H118.102C117.684 15.3317 117.27 15.2434 116.892 15.0662C116.531 14.9018 116.213 14.6582 115.959 14.3536C115.701 14.0468 115.502 13.695 115.371 13.3157C115.233 12.9058 115.164 12.476 115.165 12.0435V5.82605H117.59V12.144C117.587 12.2565 117.608 12.3684 117.65 12.4728C117.692 12.5772 117.754 12.672 117.834 12.7514C117.911 12.8312 118.003 12.8945 118.105 12.9372C118.207 12.98 118.317 13.0014 118.427 13.0001H122.186C122.299 13.0007 122.411 12.979 122.515 12.9362C122.619 12.8934 122.714 12.8304 122.793 12.7507C122.873 12.6711 122.936 12.5765 122.979 12.4723C123.021 12.3682 123.043 12.2566 123.042 12.144V5.84996H125.448Z" fill="#E2DCC8"/>
<path d="M72.4034 19.7389V17.7015H73.2882C73.4519 17.6971 73.6147 17.7264 73.7665 17.7876C73.8922 17.8409 73.9988 17.9309 74.0726 18.0458C74.1448 18.1648 74.183 18.3012 74.183 18.4404C74.183 18.5795 74.1448 18.716 74.0726 18.835C73.9971 18.9471 73.8908 19.0351 73.7665 19.0884C73.6147 19.1496 73.4519 19.1789 73.2882 19.1745H72.6665L72.8769 18.9689V19.7437L72.4034 19.7389ZM73.7043 19.7389L73.1926 18.9976H73.6948L74.2161 19.7389H73.7043ZM72.8769 19.0167L72.6665 18.7919H73.2595C73.3776 18.802 73.4952 18.7679 73.5895 18.6963C73.6254 18.6639 73.6535 18.6239 73.6717 18.5792C73.6899 18.5345 73.6978 18.4862 73.6948 18.438C73.6982 18.3891 73.6905 18.34 73.6723 18.2944C73.6541 18.2489 73.6258 18.208 73.5895 18.175C73.4952 18.1033 73.3776 18.0692 73.2595 18.0793H72.6665L72.8769 17.8545V19.0167Z" fill="#E2DCC8"/>
<path d="M75.297 19.7628C75.1312 19.7688 74.9667 19.7326 74.8187 19.6576C74.6875 19.594 74.5775 19.4938 74.5019 19.369C74.4264 19.2443 74.3886 19.1003 74.3931 18.9545C74.389 18.8067 74.4272 18.6607 74.5031 18.5337C74.5756 18.4141 74.6777 18.3153 74.7996 18.2467C74.9324 18.1772 75.0801 18.1411 75.23 18.1415C75.3749 18.1396 75.518 18.1741 75.6461 18.2419C75.7683 18.3062 75.8696 18.4041 75.9379 18.5241C76.0161 18.6554 76.0544 18.8066 76.0479 18.9593C76.0502 18.9784 76.0502 18.9977 76.0479 19.0167C76.0504 19.0374 76.0504 19.0583 76.0479 19.0789H74.7709V18.8158H75.8087L75.6318 18.8924C75.6346 18.8192 75.6181 18.7467 75.5839 18.6819C75.5534 18.6211 75.505 18.5711 75.4452 18.5385C75.3842 18.5032 75.3148 18.485 75.2444 18.4858C75.1723 18.4844 75.1012 18.5026 75.0387 18.5385C74.978 18.5697 74.9292 18.6202 74.9 18.6819C74.8651 18.75 74.8471 18.8255 74.8474 18.9019V18.9689C74.847 19.049 74.8667 19.128 74.9048 19.1985C74.9431 19.2629 74.9997 19.3145 75.0674 19.3467C75.1439 19.3814 75.2274 19.3978 75.3113 19.3946C75.3861 19.3966 75.4606 19.3853 75.5313 19.3611C75.5943 19.3319 75.6524 19.2932 75.7035 19.2463L75.9474 19.5093C75.8729 19.5926 75.7794 19.6565 75.6748 19.6959C75.5542 19.7418 75.426 19.7645 75.297 19.7628Z" fill="#E2DCC8"/>
<path d="M76.3588 19.7389V17.5723H76.8179V19.7389H76.3588Z" fill="#E2DCC8"/>
<path d="M77.2388 19.7389V18.1797H77.717V19.7485L77.2388 19.7389ZM77.4683 17.9502C77.4307 17.9518 77.3931 17.9459 77.3578 17.9327C77.3224 17.9196 77.2901 17.8995 77.2627 17.8737C77.2376 17.8517 77.2177 17.8244 77.2045 17.7938C77.1912 17.7632 77.185 17.73 77.1861 17.6967C77.1846 17.6626 77.1907 17.6286 77.2039 17.5972C77.2171 17.5658 77.2372 17.5377 77.2627 17.515C77.2901 17.4891 77.3224 17.469 77.3578 17.4559C77.3931 17.4427 77.4307 17.4368 77.4683 17.4384C77.5436 17.4349 77.6173 17.4606 77.674 17.5102C77.6993 17.5319 77.7194 17.5592 77.7327 17.5898C77.7459 17.6205 77.752 17.6538 77.7505 17.6871C77.7521 17.7219 77.7461 17.7566 77.7329 17.7889C77.7196 17.8211 77.6996 17.85 77.674 17.8737C77.6447 17.9025 77.6093 17.9244 77.5704 17.9377C77.5314 17.9509 77.49 17.9552 77.4492 17.9502H77.4683Z" fill="#E2DCC8"/>
<path d="M79.0849 19.7388V19.4327L79.0562 19.3658V18.8158C79.0584 18.7732 79.0515 18.7307 79.0358 18.6911C79.0201 18.6515 78.9961 18.6157 78.9653 18.5862C78.8876 18.5264 78.7905 18.4974 78.6927 18.5049C78.608 18.5048 78.5238 18.5194 78.444 18.548C78.3689 18.5683 78.2988 18.6042 78.2384 18.6532L78.0757 18.3327C78.1764 18.2637 78.288 18.212 78.4057 18.1797C78.5258 18.1471 78.6497 18.131 78.774 18.1319C78.9746 18.1182 79.1734 18.1777 79.3336 18.2993C79.403 18.3681 79.4566 18.4512 79.4905 18.543C79.5244 18.6347 79.5377 18.7327 79.5297 18.8301V19.7245L79.0849 19.7388ZM78.6066 19.7628C78.498 19.7667 78.39 19.7454 78.291 19.7006C78.2082 19.6646 78.1383 19.6046 78.0901 19.5284C78.0422 19.4562 78.0172 19.3712 78.0184 19.2845C78.0184 19.1986 78.0415 19.1144 78.0853 19.0406C78.1395 18.9644 78.2166 18.9074 78.3053 18.878C78.4288 18.8307 78.5607 18.8095 78.6927 18.8158H79.1088V19.0836H78.7405C78.6633 19.0747 78.5854 19.0933 78.5205 19.1362C78.5019 19.152 78.487 19.1719 78.4771 19.1942C78.4671 19.2166 78.4624 19.2409 78.4631 19.2654C78.4615 19.2923 78.4668 19.3191 78.4785 19.3434C78.4903 19.3677 78.508 19.3886 78.5301 19.4041C78.5853 19.4404 78.6505 19.4588 78.7166 19.4567C78.7885 19.4568 78.8593 19.4387 78.9223 19.4041C78.984 19.3665 79.0312 19.3092 79.0562 19.2414L79.1231 19.4519C79.0942 19.5501 79.0293 19.6338 78.9414 19.6862C78.8388 19.7417 78.7231 19.7682 78.6066 19.7628Z" fill="#E2DCC8"/>
<path d="M80.8496 19.7628C80.7261 19.7661 80.6039 19.7364 80.4957 19.6767C80.3931 19.6135 80.3129 19.5199 80.2661 19.4089C80.2067 19.2567 80.1806 19.0937 80.1896 18.9306C80.1844 18.7751 80.2121 18.6203 80.2709 18.4763C80.3195 18.3649 80.4013 18.2714 80.5052 18.2084C80.6119 18.1493 80.7324 18.1196 80.8544 18.1223C80.9925 18.1215 81.1287 18.1544 81.2513 18.218C81.3684 18.2842 81.4645 18.382 81.5287 18.5002C81.5979 18.6323 81.634 18.7791 81.634 18.9282C81.634 19.0773 81.5979 19.2242 81.5287 19.3563C81.4633 19.4736 81.3675 19.5711 81.2513 19.6384C81.1299 19.7056 80.9931 19.7402 80.8544 19.7389L80.8496 19.7628ZM79.9218 19.7389V17.5723H80.4V18.4858L80.3713 18.9641V19.4424V19.7628L79.9218 19.7389ZM80.7731 19.3897C80.8435 19.3906 80.9129 19.3724 80.9739 19.3371C81.0356 19.3011 81.0854 19.2479 81.1174 19.1841C81.1576 19.1144 81.1775 19.0349 81.1748 18.9545C81.1774 18.8726 81.1575 18.7916 81.1174 18.7202C81.0867 18.6567 81.0364 18.6047 80.9739 18.5719C80.9139 18.5344 80.8438 18.5161 80.7731 18.5193C80.7009 18.5168 80.6295 18.5351 80.5674 18.5719C80.5071 18.6074 80.4575 18.6587 80.4239 18.7202C80.3867 18.7925 80.3686 18.8732 80.3713 18.9545C80.3695 19.0342 80.3875 19.1131 80.4239 19.1841C80.4589 19.2458 80.5081 19.2983 80.5674 19.3371C80.6375 19.3759 80.717 19.3941 80.797 19.3897H80.7731Z" fill="#E2DCC8"/>
<path d="M81.9354 19.7389V17.5723H82.3946V19.7389H81.9354Z" fill="#E2DCC8"/>
<path d="M83.5998 19.7628C83.4341 19.7683 83.2696 19.7321 83.1215 19.6575C82.9932 19.5909 82.8844 19.492 82.8059 19.3706C82.7338 19.2429 82.6959 19.0987 82.6959 18.9521C82.6959 18.8055 82.7338 18.6613 82.8059 18.5336C82.8788 18.4127 82.9829 18.3136 83.1072 18.2467C83.2381 18.1766 83.3844 18.1404 83.5328 18.1414C83.6779 18.1383 83.8213 18.1729 83.9489 18.2419C84.0726 18.3058 84.1755 18.4037 84.2455 18.524C84.3199 18.6567 84.3563 18.8073 84.3507 18.9593V19.0167C84.3485 19.0373 84.3485 19.0582 84.3507 19.0788H83.0737V18.8158H84.1068L83.9346 18.8923C83.936 18.8188 83.9178 18.7461 83.882 18.6819C83.8518 18.6224 83.8053 18.5726 83.7481 18.5384C83.6851 18.5038 83.6143 18.4857 83.5424 18.4858C83.4704 18.485 83.3995 18.5032 83.3368 18.5384C83.277 18.571 83.2286 18.6211 83.1981 18.6819C83.1632 18.7499 83.1451 18.8254 83.1455 18.9019V18.9688C83.1451 19.049 83.1648 19.1279 83.2028 19.1984C83.2424 19.2618 83.2986 19.3131 83.3655 19.3467C83.4419 19.3813 83.5255 19.3977 83.6094 19.3945C83.6841 19.397 83.7587 19.3856 83.8294 19.361C83.8923 19.3318 83.9504 19.2931 84.0015 19.2462L84.2455 19.5093C84.1709 19.5925 84.0774 19.6565 83.9729 19.6958C83.8539 19.7417 83.7273 19.7644 83.5998 19.7628Z" fill="#E2DCC8"/>
<path d="M84.5801 20.1885L84.7762 19.4902L84.8384 19.7533C84.7627 19.7545 84.6893 19.7272 84.6328 19.6767C84.6055 19.6511 84.5841 19.6199 84.57 19.5852C84.556 19.5506 84.5496 19.5132 84.5514 19.4759C84.5502 19.4378 84.5567 19.4 84.5707 19.3646C84.5847 19.3292 84.6058 19.2971 84.6328 19.2702C84.6897 19.2205 84.7628 19.1933 84.8384 19.1937C84.8757 19.1928 84.9127 19.1995 84.9473 19.2135C84.9818 19.2275 85.0131 19.2484 85.0393 19.275C85.0655 19.3012 85.0858 19.3326 85.099 19.3673C85.1122 19.4019 85.1179 19.4389 85.1158 19.4759C85.1182 19.5013 85.1182 19.5269 85.1158 19.5524C85.1111 19.5819 85.1031 19.6108 85.0919 19.6385C85.0792 19.6827 85.0632 19.7258 85.0441 19.7676L84.8767 20.1885H84.5801Z" fill="#E2DCC8"/>
<path d="M86.9571 19.7724C86.7955 19.7748 86.6344 19.7539 86.4788 19.7102C86.3475 19.6773 86.224 19.6188 86.1154 19.538L86.278 19.1793C86.3727 19.2479 86.4776 19.3012 86.5888 19.3372C86.7062 19.3753 86.8289 19.3946 86.9523 19.3946C87.0283 19.3967 87.1041 19.3871 87.1771 19.3659C87.2254 19.3537 87.2688 19.327 87.3015 19.2893C87.3294 19.2577 87.3447 19.2168 87.3445 19.1746C87.3455 19.1496 87.3403 19.1248 87.3295 19.1023C87.3186 19.0798 87.3024 19.0602 87.2823 19.0454C87.2306 19.0088 87.1721 18.9827 87.1102 18.9689L86.8806 18.9067C86.7929 18.8912 86.7065 18.8688 86.6223 18.8398C86.5424 18.8125 86.4655 18.7773 86.3928 18.7346C86.3161 18.6905 86.2532 18.626 86.211 18.5484C86.1688 18.4707 86.1489 18.3828 86.1536 18.2946C86.1536 18.1822 86.1869 18.0724 86.2493 17.9789C86.3187 17.8732 86.4188 17.7914 86.5362 17.7445C86.688 17.683 86.8508 17.6537 87.0145 17.6585C87.142 17.6579 87.269 17.674 87.3923 17.7063C87.5093 17.7312 87.6211 17.7765 87.7223 17.8402L87.5741 18.1989C87.486 18.1462 87.391 18.1059 87.2919 18.0793C87.1997 18.0552 87.105 18.0424 87.0097 18.0411C86.9338 18.0389 86.8579 18.0486 86.7849 18.0698C86.7365 18.0868 86.6936 18.1166 86.6606 18.1559C86.6332 18.1895 86.6196 18.2322 86.6223 18.2754C86.6213 18.2997 86.6265 18.3239 86.6373 18.3456C86.6482 18.3674 86.6644 18.386 86.6845 18.3998C86.7362 18.4364 86.7948 18.4625 86.8567 18.4763L87.0862 18.5385C87.172 18.5557 87.2566 18.5781 87.3397 18.6054C87.422 18.6283 87.5008 18.6621 87.5741 18.7059C87.6426 18.7489 87.7013 18.8059 87.7463 18.8733C87.7908 18.9553 87.8123 19.0478 87.8084 19.1411C87.8105 19.2537 87.7771 19.3642 87.7128 19.4567C87.6416 19.5596 87.5418 19.6394 87.4258 19.6863C87.2745 19.7496 87.1116 19.7806 86.9475 19.7772L86.9571 19.7724Z" fill="#E2DCC8"/>
<path d="M89.0472 19.7628C88.9253 19.7655 88.8048 19.7358 88.6981 19.6767C88.5952 19.6126 88.5136 19.5194 88.4638 19.4089C88.4025 19.2572 88.3747 19.094 88.3825 18.9306C88.3759 18.7754 88.402 18.6207 88.459 18.4762C88.5043 18.3644 88.5849 18.2703 88.6885 18.2084C88.7985 18.1487 88.9222 18.119 89.0472 18.1223C89.1861 18.1203 89.323 18.1549 89.4442 18.2228C89.5627 18.2886 89.6605 18.3864 89.7264 18.5049C89.7959 18.6358 89.8305 18.7824 89.8268 18.9306C89.8299 19.0802 89.7953 19.2282 89.7264 19.361C89.6569 19.4786 89.5573 19.5755 89.438 19.6419C89.3186 19.7083 89.1838 19.7418 89.0472 19.7389V19.7628ZM88.1146 20.308V18.1797H88.5546V18.5049V18.9832L88.5833 19.4615V20.3463L88.1146 20.308ZM88.9659 19.3897C89.0378 19.3898 89.1086 19.3717 89.1716 19.3371C89.2309 19.2983 89.2801 19.2458 89.3151 19.1841C89.3515 19.1131 89.3696 19.0342 89.3677 18.9545C89.3704 18.8732 89.3523 18.7925 89.3151 18.7202C89.2815 18.6587 89.2319 18.6074 89.1716 18.5719C89.1095 18.5351 89.0381 18.5168 88.9659 18.5193C88.8952 18.516 88.8251 18.5344 88.7651 18.5719C88.7026 18.6047 88.6523 18.6567 88.6216 18.7202C88.5831 18.7921 88.5649 18.8731 88.569 18.9545C88.5653 19.0344 88.5835 19.1137 88.6216 19.1841C88.6536 19.2479 88.7034 19.3011 88.7651 19.3371C88.8261 19.3724 88.8955 19.3906 88.9659 19.3897Z" fill="#E2DCC8"/>
<path d="M90.9124 19.7628C90.7468 19.7673 90.5826 19.7312 90.4341 19.6576C90.3062 19.5922 90.1987 19.493 90.1233 19.3706C90.048 19.2451 90.0099 19.1008 90.0133 18.9545C90.01 18.8074 90.0464 18.662 90.1185 18.5337C90.1941 18.4149 90.2975 18.3164 90.4198 18.2467C90.5522 18.1761 90.7002 18.1399 90.8502 18.1415C90.9952 18.1396 91.1382 18.1741 91.2663 18.2419C91.3885 18.3062 91.4898 18.4041 91.5581 18.5241C91.6341 18.6563 91.6722 18.8069 91.6681 18.9593C91.6704 18.9784 91.6704 18.9977 91.6681 19.0167C91.6681 19.0167 91.6681 19.0598 91.6681 19.0789H90.3911V18.8158H91.4289L91.252 18.8924C91.2548 18.8192 91.2383 18.7467 91.2041 18.6819C91.1722 18.6221 91.1242 18.5724 91.0655 18.5385C91.0029 18.5026 90.9319 18.4844 90.8598 18.4858C90.7879 18.4857 90.7172 18.5038 90.6541 18.5385C90.5954 18.5724 90.5474 18.6221 90.5154 18.6819C90.4822 18.7504 90.4658 18.8258 90.4676 18.9019V18.9689C90.4672 19.049 90.487 19.128 90.525 19.1985C90.5627 19.2617 90.6174 19.3131 90.6828 19.3467C90.7596 19.3804 90.8429 19.3968 90.9268 19.3946C91.0031 19.3966 91.0791 19.3852 91.1515 19.3611C91.2145 19.3319 91.2726 19.2932 91.3237 19.2463L91.5676 19.5093C91.4931 19.5926 91.3996 19.6565 91.295 19.6959C91.1744 19.7418 91.0462 19.7645 90.9172 19.7628H90.9124Z" fill="#E2DCC8"/>
<path d="M92.7538 19.7628C92.5881 19.7688 92.4235 19.7326 92.2756 19.6576C92.1463 19.5923 92.0372 19.4931 91.9599 19.3706C91.9037 19.2779 91.8668 19.1747 91.8513 19.0674C91.8358 18.96 91.8421 18.8507 91.8698 18.7458C91.8974 18.6409 91.9459 18.5427 92.0123 18.4569C92.0788 18.3712 92.1618 18.2997 92.2564 18.2467C92.3892 18.1772 92.537 18.1411 92.6869 18.1415C92.8318 18.1396 92.9749 18.1741 93.103 18.2419C93.2266 18.3059 93.3295 18.4038 93.3995 18.5241C93.4739 18.6568 93.5103 18.8073 93.5047 18.9593V19.0167C93.5047 19.0167 93.5047 19.0598 93.5047 19.0789H92.2277V18.8158H93.2656L93.0934 18.8924C93.0948 18.8188 93.0766 18.7462 93.0408 18.6819C93.0106 18.6224 92.9641 18.5727 92.9069 18.5385C92.8439 18.5038 92.7731 18.4857 92.7012 18.4858C92.6292 18.4851 92.5583 18.5032 92.4956 18.5385C92.4358 18.5711 92.3874 18.6211 92.3569 18.6819C92.322 18.75 92.3039 18.8255 92.3043 18.9019V18.9689C92.3039 19.049 92.3236 19.128 92.3616 19.1985C92.3999 19.2629 92.4565 19.3145 92.5243 19.3467C92.6007 19.3814 92.6843 19.3978 92.7682 19.3946C92.8429 19.3966 92.9174 19.3853 92.9882 19.3611C93.0511 19.3319 93.1092 19.2932 93.1604 19.2463L93.4043 19.5093C93.3297 19.5926 93.2362 19.6565 93.1317 19.6959C93.0126 19.7413 92.886 19.764 92.7586 19.7628H92.7538Z" fill="#E2DCC8"/>
<path d="M94.4946 19.7628C94.3543 19.7648 94.2158 19.7302 94.0929 19.6624C93.9754 19.5951 93.878 19.4977 93.8107 19.3802C93.7442 19.2473 93.7096 19.1007 93.7096 18.9521C93.7096 18.8035 93.7442 18.657 93.8107 18.5241C93.878 18.4066 93.9754 18.3092 94.0929 18.2419C94.2171 18.1779 94.3549 18.1451 94.4946 18.1462C94.6166 18.1435 94.7371 18.1732 94.8438 18.2323C94.9451 18.2969 95.025 18.3901 95.0733 18.5002C95.1321 18.6442 95.1598 18.799 95.1547 18.9545C95.1636 19.1176 95.1375 19.2807 95.0781 19.4328C95.0328 19.5447 94.9522 19.6387 94.8486 19.7006C94.7406 19.761 94.6182 19.7908 94.4946 19.7867V19.7628ZM94.5712 19.3897C94.6416 19.3906 94.711 19.3724 94.772 19.3371C94.8339 19.2999 94.885 19.2471 94.9203 19.1841C94.9567 19.1131 94.9748 19.0342 94.9729 18.9545C94.9756 18.8732 94.9575 18.7925 94.9203 18.7202C94.8863 18.6574 94.8348 18.6059 94.772 18.5719C94.7107 18.5376 94.6415 18.5195 94.5712 18.5195C94.5008 18.5195 94.4317 18.5376 94.3703 18.5719C94.3075 18.6059 94.256 18.6574 94.222 18.7202C94.1848 18.7925 94.1667 18.8732 94.1694 18.9545C94.1675 19.0342 94.1856 19.1131 94.222 19.1841C94.2573 19.2471 94.3084 19.2999 94.3703 19.3371C94.4313 19.3724 94.5007 19.3906 94.5712 19.3897ZM94.9825 19.7389V19.4184V18.9402L94.9538 18.4619V17.5723H95.4081V19.7389H94.9825Z" fill="#E2DCC8"/>
<path d="M95.7621 20.1885L95.9534 19.4902L96.0203 19.7533C95.9444 19.7555 95.8707 19.728 95.8147 19.6767C95.7866 19.6518 95.7646 19.6207 95.7505 19.5858C95.7364 19.551 95.7305 19.5133 95.7334 19.4759C95.7321 19.4378 95.7387 19.4 95.7526 19.3646C95.7666 19.3292 95.7877 19.2971 95.8147 19.2702C95.8694 19.2201 95.9413 19.1927 96.0155 19.1937C96.0528 19.1928 96.0899 19.1995 96.1244 19.2135C96.159 19.2275 96.1903 19.2484 96.2164 19.275C96.2432 19.301 96.2643 19.3322 96.2783 19.3668C96.2923 19.4014 96.2989 19.4386 96.2977 19.4759C96.3 19.5013 96.3 19.5269 96.2977 19.5524C96.3012 19.581 96.3012 19.6099 96.2977 19.6385C96.2831 19.6826 96.2655 19.7258 96.2451 19.7676L96.0777 20.1885H95.7621Z" fill="#E2DCC8"/>
<path d="M97.8999 18.5193H98.8852V18.8875H97.8999V18.5193ZM97.9334 19.361H99.0478V19.7388H97.4647V17.7014H99.0095V18.0792H97.9334V19.3658V19.361Z" fill="#E2DCC8"/>
<path d="M99.1721 19.7389L99.8752 18.8158L99.8704 19.0693L99.1913 18.1654H99.703L100.129 18.7537L99.9374 18.7632L100.377 18.1654H100.865L100.186 19.0598V18.8158L100.889 19.7389H100.373L99.923 19.1124L100.114 19.1411L99.6695 19.7389H99.1721Z" fill="#E2DCC8"/>
<path d="M101.841 19.7628C101.675 19.7698 101.51 19.7335 101.362 19.6576C101.233 19.5937 101.126 19.4941 101.052 19.3706C100.98 19.2429 100.942 19.0987 100.942 18.9521C100.942 18.8055 100.98 18.6613 101.052 18.5336C101.128 18.4124 101.235 18.3134 101.362 18.2467C101.511 18.1723 101.675 18.1361 101.841 18.1414C101.991 18.1392 102.139 18.1754 102.271 18.2467C102.392 18.3131 102.488 18.4172 102.544 18.5432L102.19 18.7345C102.157 18.6656 102.104 18.6087 102.037 18.5719C101.976 18.5357 101.907 18.5174 101.836 18.5193C101.762 18.5167 101.689 18.5349 101.626 18.5719C101.563 18.6059 101.511 18.6574 101.477 18.7201C101.44 18.7925 101.422 18.8732 101.425 18.9545C101.423 19.0357 101.441 19.116 101.477 19.1889C101.513 19.2515 101.566 19.3033 101.629 19.3386C101.692 19.374 101.764 19.3916 101.836 19.3897C101.906 19.3892 101.975 19.3711 102.037 19.3371C102.103 19.2991 102.156 19.2426 102.19 19.1745L102.544 19.3658C102.487 19.4904 102.392 19.5929 102.271 19.6576C102.14 19.7309 101.991 19.7672 101.841 19.7628Z" fill="#E2DCC8"/>
<path d="M103.548 19.7628C103.383 19.7684 103.218 19.7322 103.07 19.6576C102.942 19.591 102.833 19.4921 102.754 19.3706C102.682 19.2429 102.644 19.0988 102.644 18.9522C102.644 18.8055 102.682 18.6614 102.754 18.5337C102.827 18.4128 102.931 18.3137 103.056 18.2467C103.188 18.1761 103.336 18.1399 103.486 18.1415C103.631 18.1396 103.774 18.1741 103.902 18.2419C104.024 18.3074 104.124 18.405 104.194 18.5241C104.27 18.6563 104.308 18.8069 104.304 18.9593C104.304 18.9593 104.304 18.9976 104.304 19.0167C104.304 19.0359 104.304 19.0598 104.304 19.0789H103.027V18.8158H104.065L103.888 18.8924C103.891 18.8192 103.874 18.7467 103.84 18.6819C103.808 18.6221 103.76 18.5724 103.701 18.5385C103.639 18.5032 103.568 18.4851 103.496 18.4858C103.424 18.4857 103.353 18.5038 103.29 18.5385C103.231 18.5724 103.183 18.6221 103.151 18.6819C103.118 18.7504 103.102 18.8258 103.104 18.9019V18.9689C103.103 19.049 103.123 19.128 103.161 19.1985C103.199 19.2617 103.253 19.3131 103.319 19.3467C103.396 19.3804 103.479 19.3968 103.563 19.3946C103.637 19.397 103.712 19.3857 103.783 19.3611C103.848 19.3331 103.908 19.2943 103.96 19.2463L104.199 19.5093C104.125 19.5914 104.033 19.6552 103.931 19.6959C103.81 19.7418 103.682 19.7645 103.553 19.7628H103.548Z" fill="#E2DCC8"/>
<path d="M104.61 19.7389V17.5723H105.064V19.7389H104.61Z" fill="#E2DCC8"/>
<path d="M105.49 19.7389V17.5723H105.944V19.7389H105.49Z" fill="#E2DCC8"/>
<path d="M107.15 19.7628C106.984 19.7679 106.82 19.7318 106.671 19.6576C106.542 19.5917 106.434 19.4909 106.358 19.3667C106.283 19.2425 106.244 19.0997 106.246 18.9545C106.242 18.81 106.278 18.6673 106.351 18.5423C106.424 18.4173 106.53 18.315 106.657 18.2467C106.789 18.1761 106.937 18.1399 107.088 18.1415C107.232 18.1396 107.375 18.1741 107.504 18.2419C107.626 18.3062 107.727 18.4041 107.795 18.5241C107.871 18.6563 107.909 18.8069 107.905 18.9593C107.908 18.9784 107.908 18.9977 107.905 19.0167C107.905 19.0167 107.905 19.0598 107.905 19.0789H106.624V18.8158H107.661L107.484 18.8924C107.487 18.8192 107.471 18.7467 107.437 18.6819C107.405 18.6221 107.357 18.5724 107.298 18.5385C107.235 18.5026 107.164 18.4844 107.092 18.4858C107.02 18.4857 106.95 18.5038 106.887 18.5385C106.828 18.5724 106.78 18.6221 106.748 18.6819C106.715 18.7504 106.698 18.8258 106.7 18.9019V18.9689C106.7 19.049 106.719 19.128 106.757 19.1985C106.795 19.2617 106.85 19.3131 106.915 19.3467C106.992 19.3804 107.075 19.3968 107.159 19.3946C107.236 19.3966 107.312 19.3852 107.384 19.3611C107.447 19.3319 107.505 19.2932 107.556 19.2463L107.8 19.5093C107.725 19.5915 107.631 19.6553 107.528 19.6959C107.407 19.7418 107.279 19.7645 107.15 19.7628Z" fill="#E2DCC8"/>
<path d="M109.168 18.1462C109.284 18.1445 109.398 18.169 109.503 18.2179C109.601 18.2686 109.682 18.3489 109.732 18.4475C109.795 18.5685 109.824 18.7037 109.818 18.8397V19.7388H109.34V18.9114C109.349 18.8098 109.318 18.7088 109.254 18.6292C109.224 18.5976 109.188 18.573 109.147 18.5573C109.107 18.5416 109.063 18.5351 109.02 18.5384C108.953 18.5373 108.888 18.552 108.828 18.5814C108.77 18.6123 108.723 18.6609 108.694 18.7201C108.659 18.7964 108.643 18.8801 108.647 18.964V19.7388H108.168V18.1797H108.604V18.6149L108.522 18.4858C108.578 18.3823 108.663 18.2974 108.766 18.2419C108.888 18.1723 109.028 18.1391 109.168 18.1462Z" fill="#E2DCC8"/>
<path d="M111.004 19.7628C110.847 19.7657 110.69 19.7296 110.55 19.6576C110.421 19.5937 110.313 19.4941 110.239 19.3706C110.164 19.2439 110.125 19.0994 110.125 18.9521C110.125 18.8049 110.164 18.6604 110.239 18.5336C110.316 18.4124 110.423 18.3134 110.55 18.2467C110.691 18.1761 110.847 18.14 111.004 18.1415C111.154 18.1399 111.302 18.1761 111.435 18.2467C111.556 18.3131 111.651 18.4173 111.707 18.5432L111.354 18.7345C111.32 18.6665 111.266 18.6099 111.2 18.5719C111.14 18.5357 111.07 18.5175 111 18.5193C110.926 18.5167 110.853 18.5349 110.789 18.5719C110.726 18.6059 110.675 18.6574 110.641 18.7202C110.602 18.7921 110.584 18.8731 110.588 18.9545C110.586 19.0358 110.604 19.1165 110.641 19.1889C110.677 19.2516 110.729 19.3033 110.793 19.3387C110.856 19.374 110.927 19.3917 111 19.3897C111.073 19.3905 111.145 19.3707 111.207 19.3327C111.27 19.2946 111.32 19.2399 111.354 19.1745L111.707 19.3658C111.651 19.4904 111.555 19.5929 111.435 19.6576C111.303 19.7302 111.155 19.7666 111.004 19.7628Z" fill="#E2DCC8"/>
<path d="M112.731 19.7628C112.565 19.7684 112.401 19.7322 112.253 19.6576C112.124 19.591 112.016 19.4921 111.937 19.3706C111.865 19.2429 111.827 19.0988 111.827 18.9522C111.827 18.8055 111.865 18.6614 111.937 18.5337C112.01 18.4128 112.114 18.3137 112.238 18.2467C112.369 18.1767 112.516 18.1405 112.664 18.1415C112.809 18.1396 112.952 18.1741 113.08 18.2419C113.204 18.3059 113.307 18.4038 113.377 18.5241C113.451 18.6568 113.488 18.8073 113.482 18.9593V19.0167C113.482 19.0167 113.482 19.0598 113.482 19.0789H112.21V18.8158H113.243L113.071 18.8924C113.072 18.8188 113.054 18.7462 113.018 18.6819C112.988 18.6224 112.941 18.5727 112.884 18.5385C112.821 18.5038 112.75 18.4857 112.678 18.4858C112.606 18.4851 112.536 18.5032 112.473 18.5385C112.413 18.5711 112.365 18.6211 112.334 18.6819C112.299 18.75 112.281 18.8255 112.281 18.9019V18.9689C112.281 19.049 112.301 19.128 112.339 19.1985C112.377 19.2629 112.434 19.3145 112.501 19.3467C112.578 19.3814 112.661 19.3978 112.745 19.3946C112.82 19.3966 112.895 19.3853 112.965 19.3611C113.028 19.3319 113.086 19.2932 113.138 19.2463L113.381 19.5093C113.307 19.5926 113.213 19.6565 113.109 19.6959C112.99 19.7418 112.863 19.7645 112.736 19.7628H112.731Z" fill="#E2DCC8"/>
<path d="M3.64309 17.7016C4.68571 18.3234 5.14007 18.9308 6.61313 19.5047C7.89517 20.0401 9.27718 20.294 10.6658 20.2495C12.0544 20.2049 13.4173 19.8629 14.6624 19.2464C16.7811 18.1847 16.6424 17.6968 17.532 17.2425C18.2781 17.802 19.1677 19.1555 19.8085 19.8442C20.5738 20.6573 23.1899 20.3225 24.4573 20.2699C24.4573 19.8395 17.0441 11.7233 16.805 11.575C15.2746 18.9499 4.78615 18.7538 3.79614 10.9724C3.73874 7.94496 5.08746 6.01754 6.88096 4.89361C9.05708 3.5449 12.008 3.53055 13.9737 5.01318C15.308 5.70188 18.4694 9.8915 19.8468 11.2689C21.8794 13.2968 23.6729 15.7981 25.629 17.7064C26.5378 18.3664 27.0639 18.9499 28.3791 19.4568C29.626 19.9622 30.9556 20.233 32.3009 20.2556C34.7871 20.2439 37.1773 19.294 38.9934 17.5959C40.8095 15.8978 41.9175 13.5766 42.0958 11.0967C42.1913 9.71875 41.9924 8.33621 41.5123 7.04103C40.9671 5.60623 40.3836 5.00361 39.7905 4.00882C38.7766 3.19098 38.3079 2.53575 36.8492 1.74183C35.5588 1.04844 34.124 0.666801 32.6596 0.627467C27.9534 0.455291 26.1551 3.0475 24.9356 3.65968C22.329 -0.109064 21.9703 0.426595 18.0963 0.637032L23.759 7.17973C24.5338 7.9593 25.3134 9.13106 25.8586 9.26019C26.1599 6.86885 27.92 5.21405 29.6848 4.40578C32.0139 3.35359 34.9983 3.99925 36.347 5.41014C37.2462 5.8071 38.2314 7.32321 38.6092 8.75801C40.3884 15.5303 31.7652 19.8012 27.456 14.8894L20.9038 7.57191C20.0333 6.70624 18.1059 4.22404 16.9341 3.17185C8.92795 -4.06433 -2.86613 5.08492 1.32349 14.3155C2.18438 16.2046 2.69134 16.4199 3.64309 17.7064V17.7016Z" fill="#E2DCC8"/>
<path d="M30.7417 7.97828C31.7987 7.50001 32.8413 6.83043 34.343 7.17957C35.8448 7.5287 36.4187 8.68133 36.9639 9.01133C36.8157 7.76306 35.5578 6.62 34.3191 6.37608C32.7456 6.08912 31.196 7.00261 30.7417 7.98306V7.97828ZM29.106 13.6649C29.8808 13.7701 30.1534 14.0905 31.2056 13.9471C31.8387 13.8866 32.4348 13.6213 32.9035 13.1914C31.8359 13.4507 30.7152 13.3857 29.6847 13.0049C29.2592 12.8221 28.8747 12.5556 28.5543 12.2211C28.2338 11.8867 27.9839 11.4913 27.8195 11.0583C27.8195 11.0583 27.8673 11.0583 27.8769 11.1157L27.9773 11.2257C28.0443 11.3118 28.0682 11.3548 28.1256 11.4314C28.3583 11.826 28.6874 12.1551 29.0821 12.3879C29.6358 12.7939 30.3088 13.0042 30.9952 12.9857C29.9478 12.3401 29.2495 11.9096 28.6756 10.824C27.8912 9.33656 28.4412 8.46611 28.7234 7.06C28.222 7.48861 27.8619 8.05877 27.6903 8.69568C27.4034 9.68569 27.6234 10.1018 27.8482 10.9914L27.5516 10.5131C27.4847 10.36 27.3747 10.1305 27.3651 10.0874C27.2647 10.7004 27.3367 11.3292 27.5732 11.9036C27.8097 12.4779 28.2013 12.9751 28.7043 13.3397L28.9004 13.4736L29.0391 13.5836L29.0821 13.6266L29.1299 13.6649C28.709 13.6314 28.6517 13.464 28.3217 13.3349C28.6898 13.9309 29.2324 14.3993 29.8757 14.6765C30.5191 14.9537 31.2322 15.0263 31.9182 14.8845C32.5783 14.7305 33.18 14.3897 33.6515 13.9029C34.1231 13.4161 34.4445 12.8038 34.5774 12.1392C34.3909 12.3018 34.4865 12.2492 34.3287 12.4214L33.5922 13.1675C31.8226 14.7027 29.5317 14.1575 29.1299 13.6457L29.106 13.6649ZM36.6005 11.3883H36.7009L36.7392 12.4214C37.4613 11.5175 37.2892 9.77656 36.4044 8.59524C35.8209 7.82523 34.013 6.94522 32.6069 7.5861C34.5678 8.01176 36.4331 8.73872 36.6531 11.1779L36.5383 11.2018C36.4092 9.9583 35.1752 8.51872 34.3526 8.4948C34.9026 8.79611 36.5765 11.3644 35.3618 13.4688L35.137 13.7462C35.07 14.0905 35.0413 13.9566 34.9744 14.0044C35.0126 13.8514 34.9744 13.9518 35.0461 13.8227C35.0461 13.8227 35.0844 13.8227 35.0891 13.7797C35.0939 13.7366 35.1226 13.7797 35.137 13.7462C35.1991 13.244 35.5196 12.8901 35.5483 12.0962C35.5769 11.5594 35.4837 11.0231 35.2757 10.5274C35.1417 10.3074 35.2326 10.4318 35.1035 10.3218C35.2517 14.8175 31.9374 14.7888 31.0765 15.2097C31.8441 15.4178 32.656 15.3945 33.4104 15.1427C33.7142 15.0218 34.0004 14.861 34.2617 14.6645L34.8404 14.0905C34.8812 14.0494 34.9261 14.0125 34.9744 13.9805C34.8364 14.2879 34.6561 14.5745 34.4387 14.8318C35.0805 14.5807 35.6331 14.1446 36.0265 13.5788C36.4423 12.9266 36.643 12.1605 36.6005 11.3883ZM30.5026 6.47173C30.383 6.89261 29.1251 7.94958 29.5125 9.5183C29.7373 9.25047 29.9908 7.87306 31.2773 6.91174C32.3821 6.0939 33.4104 6.15608 34.9361 6.32825C34.7974 6.1513 35.0222 6.32825 34.74 6.13216L33.9269 5.74477C33.121 5.45848 32.235 5.49969 31.4591 5.85955C31.043 6.06521 30.8086 6.29956 30.5026 6.4526C30.5839 6.20869 30.4356 6.47652 30.5982 6.29478C30.7608 6.11303 30.6317 6.25651 30.7321 6.17999L31.7317 5.52477C31.1673 5.41476 30.2395 5.87868 29.8521 6.12738C29.3008 6.47148 28.8826 6.99252 28.666 7.60523C28.1112 9.06394 28.666 10.9531 29.6225 11.5031C29.2248 10.5788 29.0859 9.56372 29.2208 8.56654C29.3691 7.6961 29.9478 6.73956 30.5073 6.47173H30.5026Z" fill="#E2DCC8"/>
</g>
<defs>
<clipPath id="clip0_451_326">
<rect width="125" height="19.8959" fill="white" transform="translate(0.44812 0.483826)"/>
</clipPath>
</defs>
</svg>
