<svg width="126" height="30" viewBox="0 0 126 30" fill="none" xmlns="http://www.w3.org/2000/svg">
<path d="M12.8325 18.2748C12.8325 19.4745 12.6283 20.4508 12.2199 21.2038C11.8115 21.9568 11.2116 22.5056 10.4203 22.8502C9.62902 23.1948 8.66543 23.3671 7.52954 23.3671C6.27879 23.3671 5.26415 23.1693 4.48563 22.7736C3.7071 22.3652 3.13277 21.759 2.76265 20.9549C2.4053 20.1509 2.22662 19.149 2.22662 17.9493V9.27701C2.22662 9.07281 2.30958 8.9707 2.47549 8.9707H4.29418C4.4601 8.9707 4.54306 9.06642 4.54306 9.25787V18.3513C4.54306 19.4745 4.81108 20.304 5.34711 20.8401C5.88315 21.3761 6.66806 21.6441 7.70184 21.6441C8.37827 21.6441 8.95259 21.5293 9.42482 21.2995C9.9098 21.0698 10.2799 20.7061 10.5352 20.2083C10.7904 19.7106 10.9181 19.0724 10.9181 18.2939V9.25787C10.9181 9.06642 10.9946 8.9707 11.1478 8.9707H12.6027C12.7559 8.9707 12.8325 9.06004 12.8325 9.23872V18.2748ZM23.666 23.1757C23.4618 23.1757 23.3597 23.0736 23.3597 22.8694V13.3164C23.3597 13.125 23.4426 13.0293 23.6085 13.0293H25.1209C25.2741 13.0293 25.3507 13.1122 25.3507 13.2781V14.3311C25.3507 14.3949 25.3634 14.4395 25.3889 14.4651C25.4272 14.4778 25.4783 14.4523 25.5421 14.3885C25.9377 14.0694 26.3142 13.795 26.6716 13.5653C27.029 13.3228 27.3927 13.1441 27.7628 13.0293C28.1329 12.9016 28.535 12.8378 28.9689 12.8378C29.9389 12.8378 30.6919 13.1058 31.2279 13.6419C31.7639 14.1779 32.032 14.8862 32.032 15.7669V22.8311C32.032 23.0608 31.9235 23.1757 31.7065 23.1757H30.2898C30.1877 23.1757 30.1112 23.1565 30.0601 23.1182C30.0218 23.0672 30.0027 22.9842 30.0027 22.8694V16.1689C30.0027 15.6073 29.8559 15.167 29.5624 14.848C29.2688 14.5289 28.8157 14.3694 28.2031 14.3694C27.8585 14.3694 27.5395 14.4268 27.2459 14.5416C26.9524 14.6438 26.6588 14.8033 26.3653 15.0203C26.0717 15.2245 25.7463 15.4861 25.3889 15.8052V22.8502C25.3889 23.0672 25.2677 23.1757 25.0252 23.1757H23.666ZM67.7495 22.8119C67.7495 22.9523 67.7176 23.048 67.6538 23.0991C67.6028 23.1501 67.5007 23.1757 67.3475 23.1757H66.0457C65.816 23.1757 65.7011 23.0736 65.7011 22.8694L65.7394 9.25787C65.7394 9.06642 65.8224 8.9707 65.9883 8.9707H67.5007C67.6666 8.9707 67.7495 9.06642 67.7495 9.25787V22.8119ZM79.6581 18.8108C79.6581 19.3851 79.7921 19.9084 80.0601 20.3806C80.3409 20.8401 80.711 21.2102 81.1705 21.491C81.6427 21.759 82.166 21.893 82.7403 21.893C83.3274 21.893 83.8507 21.7718 84.3101 21.5293C84.7696 21.2868 85.1908 20.9103 85.5736 20.3998C85.6119 20.3487 85.6502 20.3232 85.6885 20.3232C85.7268 20.3104 85.7842 20.3232 85.8608 20.3615L86.8372 20.8209C86.9775 20.8847 86.9903 20.9868 86.8754 21.1272C86.5181 21.6505 86.1224 22.0781 85.6885 22.4099C85.2673 22.7417 84.7951 22.9842 84.2718 23.1374C83.7486 23.2905 83.1679 23.3671 82.5297 23.3671C81.5598 23.3671 80.7046 23.1501 79.9644 22.7162C79.2242 22.2823 78.6371 21.676 78.2031 20.8975C77.782 20.119 77.5714 19.2256 77.5714 18.2173C77.5714 17.107 77.7884 16.1561 78.2223 15.3648C78.6562 14.5608 79.2433 13.9418 79.9836 13.5079C80.7366 13.0612 81.5725 12.8378 82.4914 12.8378C83.4359 12.8378 84.2591 13.0484 84.961 13.4696C85.6757 13.878 86.2309 14.4715 86.6266 15.25C87.0222 16.0285 87.22 16.973 87.22 18.0833C87.22 18.1982 87.2073 18.3003 87.1817 18.3896C87.1562 18.4662 87.0733 18.5045 86.9329 18.5045H79.8495C79.7857 18.5045 79.7347 18.5364 79.6964 18.6002C79.6709 18.6513 79.6581 18.7215 79.6581 18.8108ZM84.8845 17.2984C85.0248 17.2984 85.1142 17.2793 85.1525 17.241C85.1908 17.2027 85.2099 17.1325 85.2099 17.0304C85.2099 16.5454 85.1014 16.0859 84.8845 15.652C84.6802 15.2181 84.3803 14.8671 83.9847 14.5991C83.6018 14.3311 83.1232 14.1971 82.5489 14.1971C81.949 14.1971 81.4321 14.3438 80.9982 14.6374C80.577 14.9182 80.2516 15.2947 80.0218 15.7669C79.8049 16.2391 79.6964 16.7432 79.6964 17.2793L84.8845 17.2984ZM102.632 22.027C102.185 22.4609 101.694 22.7928 101.158 23.0225C100.622 23.2522 100.015 23.3671 99.3389 23.3671C98.3561 23.3671 97.584 23.1118 97.0224 22.6013C96.4609 22.0908 96.1801 21.4208 96.1801 20.5912C96.1801 19.8892 96.3779 19.2894 96.7736 18.7916C97.182 18.2939 97.7691 17.8983 98.5348 17.6047C99.3133 17.3112 100.258 17.1389 101.368 17.0878L102.613 16.9921C102.689 16.9793 102.759 16.9538 102.823 16.9155C102.887 16.8772 102.919 16.807 102.919 16.7049V16.2263C102.919 15.601 102.727 15.1096 102.345 14.7522C101.962 14.3821 101.438 14.1971 100.775 14.1971C100.277 14.1971 99.8175 14.3119 99.3963 14.5416C98.9751 14.7714 98.5986 15.1287 98.2668 15.6137C98.2285 15.6775 98.1902 15.7222 98.1519 15.7477C98.1136 15.7733 98.0435 15.7733 97.9413 15.7477L96.6395 15.3648C96.5885 15.3393 96.5502 15.3074 96.5247 15.2691C96.5119 15.2181 96.5311 15.1287 96.5821 15.0011C96.9522 14.3119 97.4947 13.7823 98.2094 13.4121C98.9368 13.0293 99.8239 12.8378 100.87 12.8378C101.789 12.8378 102.542 12.9718 103.129 13.2398C103.716 13.4951 104.15 13.8716 104.431 14.3694C104.725 14.8543 104.872 15.4287 104.872 16.0923V22.8502C104.872 22.9778 104.846 23.0672 104.795 23.1182C104.757 23.1565 104.686 23.1757 104.584 23.1757H103.283C103.193 23.1757 103.123 23.1438 103.072 23.0799C103.021 23.0034 102.989 22.9076 102.976 22.7928L102.957 22.0653C102.919 21.8611 102.81 21.8483 102.632 22.027ZM102.919 18.4088C102.919 18.1918 102.829 18.0961 102.651 18.1216L101.617 18.1982C101.107 18.2237 100.641 18.2939 100.22 18.4088C99.7983 18.5109 99.4346 18.6513 99.1283 18.8299C98.8347 19.0086 98.5986 19.2256 98.42 19.4808C98.254 19.7233 98.1711 20.0105 98.1711 20.3423C98.1711 20.8401 98.3434 21.2357 98.688 21.5293C99.0453 21.81 99.5239 21.9504 100.124 21.9504C100.507 21.9504 100.864 21.8866 101.196 21.759C101.54 21.6186 101.84 21.4463 102.096 21.2421C102.351 21.0251 102.549 20.8018 102.689 20.5721C102.842 20.3423 102.919 20.119 102.919 19.902V18.4088ZM116.832 13.0293C117.049 13.0293 117.157 13.1314 117.157 13.3356V14.0822C117.157 14.1715 117.177 14.2226 117.215 14.2353C117.266 14.2353 117.33 14.2034 117.406 14.1396C117.572 13.9737 117.776 13.795 118.019 13.6036C118.261 13.3994 118.568 13.2207 118.938 13.0676C119.321 12.9144 119.787 12.8378 120.335 12.8378C121.114 12.8378 121.809 13.0293 122.422 13.4121C123.047 13.7823 123.539 14.3438 123.896 15.0968C124.266 15.8498 124.451 16.807 124.451 17.9685C124.451 19.1426 124.266 20.1317 123.896 20.9358C123.539 21.7271 123.035 22.3333 122.384 22.7545C121.746 23.1629 120.999 23.3671 120.144 23.3671C119.582 23.3671 119.078 23.2841 118.632 23.1182C118.198 22.9395 117.815 22.7034 117.483 22.4099C117.368 22.295 117.285 22.2504 117.234 22.2759C117.183 22.2886 117.157 22.3716 117.157 22.5248V26.0664C117.157 26.2451 117.081 26.3344 116.928 26.3344H115.377C115.211 26.3344 115.128 26.2451 115.128 26.0664V13.3739C115.128 13.2462 115.154 13.1569 115.205 13.1058C115.256 13.0548 115.352 13.0293 115.492 13.0293H116.832ZM117.157 20.8209C117.502 21.1783 117.859 21.4654 118.23 21.6824C118.612 21.8866 119.04 21.9887 119.512 21.9887C120.086 21.9887 120.584 21.842 121.005 21.5484C121.439 21.2549 121.778 20.8145 122.02 20.2275C122.263 19.6276 122.384 18.8746 122.384 17.9685C122.384 17.0623 122.256 16.3348 122.001 15.786C121.758 15.2372 121.427 14.8416 121.005 14.5991C120.584 14.3438 120.118 14.2162 119.608 14.2162C119.136 14.2162 118.714 14.3183 118.344 14.5225C117.974 14.7267 117.681 14.982 117.464 15.2883C117.26 15.5946 117.157 15.9009 117.157 16.2072V20.8209Z" fill="#E2DCC8"/>
<mask id="path-2-outside-1_450_73" maskUnits="userSpaceOnUse" x="36.7883" y="1.17566" width="23" height="26" fill="black">
<rect fill="white" x="36.7883" y="1.17566" width="23" height="26"/>
<path d="M57.8895 13.9024C57.9434 14.5672 57.8214 15.2191 57.7432 15.873C57.7066 16.1812 57.6138 16.483 57.541 16.7865C57.4852 17.0192 57.4258 17.2514 57.3585 17.4813C57.3085 17.6525 57.2464 17.8205 57.184 17.9878C57.1122 18.1799 57.0402 18.3724 56.9568 18.5595C56.8538 18.7919 56.7443 19.0213 56.6284 19.2478C56.5285 19.4439 56.4198 19.636 56.3091 19.8264C56.2042 20.0069 56.1011 20.1894 55.9806 20.3593C55.7717 20.6536 55.5637 20.9504 55.3302 21.2247C55.069 21.5316 54.7856 21.8201 54.5011 22.1056C54.3166 22.2906 54.1172 22.4618 53.9155 22.6284C53.7523 22.7632 53.578 22.885 53.4044 23.0068C53.2188 23.1373 53.0296 23.2632 52.8397 23.3872C52.7424 23.4529 52.641 23.5123 52.5361 23.565C52.2838 23.687 52.0288 23.8037 51.7733 23.9187C51.5935 23.9996 51.4133 24.0806 51.2291 24.1502C51.0591 24.216 50.8852 24.2716 50.7086 24.3167C50.4133 24.3891 50.1156 24.4525 49.8171 24.5099C49.2028 24.6285 48.5762 24.671 47.9515 24.6365C47.411 24.6071 46.8758 24.5357 46.3515 24.3945C46.0949 24.3254 45.8351 24.2659 45.5821 24.1857C45.3875 24.1239 45.2 24.039 45.0113 23.9595C44.8647 23.8977 44.7193 23.8323 44.577 23.7613C44.4049 23.6752 44.2344 23.5854 44.0672 23.4902C43.8628 23.3743 43.6602 23.2564 43.4633 23.1291C43.295 23.0201 43.1308 22.9031 42.974 22.7779C42.7607 22.6074 42.5481 22.4344 42.3493 22.2469C42.0848 21.9968 41.8245 21.7404 41.5809 21.4699C41.3567 21.2215 41.1469 20.9604 40.9526 20.6879C40.7376 20.3851 40.5397 20.0688 40.3514 19.7485C40.1823 19.4611 40.0261 19.1649 39.8831 18.8636C39.7597 18.6035 39.6602 18.3318 39.5546 18.0633C39.4824 17.8794 39.4146 17.6938 39.3513 17.5064C39.2945 17.3371 39.2378 17.167 39.1969 16.9933C39.1304 16.708 39.0875 16.4171 39.0168 16.1329C38.8899 15.6224 38.8751 15.0986 38.8228 14.58C38.766 14.0172 38.7813 13.4526 38.8544 12.8908C38.9139 12.4341 38.9648 11.9757 39.0418 11.5219C39.0913 11.2303 39.1781 10.9445 39.2546 10.6581C39.3107 10.449 39.3739 10.2414 39.4416 10.0357C39.4974 9.86601 39.5608 9.69859 39.6271 9.53276C39.6906 9.37421 39.7583 9.21713 39.8316 9.06278C39.9484 8.81614 40.0637 8.56825 40.1941 8.32866C40.3263 8.08554 40.464 7.84367 40.6207 7.61613C40.8725 7.25038 41.1271 6.88439 41.4086 6.54171C41.6665 6.22597 41.946 5.92856 42.2452 5.65165C42.5651 5.35761 42.9153 5.09631 43.2597 4.82921C43.4356 4.69182 43.6196 4.56527 43.8109 4.45028C44.0316 4.31832 44.2629 4.20398 44.4917 4.08577C44.6463 4.00621 44.8028 3.92915 44.9614 3.85732C45.1062 3.79162 45.2519 3.72547 45.4025 3.67546C45.6219 3.60238 45.8443 3.53646 46.0687 3.48031C46.3339 3.41382 46.6034 3.36472 46.8694 3.30141C47.5529 3.13854 48.2469 3.17855 48.9401 3.18366C49.3867 3.18696 49.8155 3.30153 50.2503 3.37381C50.5101 3.41712 50.7607 3.51884 51.0139 3.59897C51.2163 3.66307 51.419 3.72763 51.6168 3.80435C51.7824 3.86857 51.9424 3.9479 52.1023 4.02576C52.2317 4.08884 52.3597 4.15544 52.4841 4.22796C52.7193 4.36503 52.9565 4.49972 53.1834 4.64963C53.4359 4.81648 53.6841 4.99152 53.9228 5.17747C54.1155 5.32583 54.2976 5.48734 54.468 5.66086C54.8007 6.00399 55.1381 6.34531 55.4398 6.71493C55.7124 7.04943 55.9555 7.41132 56.1846 7.77798C56.4055 8.13135 56.6023 8.50096 56.7896 8.87354C56.9172 9.12711 57.0168 9.39546 57.1166 9.66199C57.2372 9.98554 57.3501 10.3121 57.4551 10.6416C57.5192 10.8368 57.5709 11.0359 57.6099 11.2376C57.6781 11.6042 57.7435 11.9722 57.7864 12.3424C57.8465 12.8602 57.8849 13.3806 57.9325 13.8995L57.8895 13.9024ZM47.0796 19.8259L47.0861 19.8607C47.351 19.7966 47.6235 19.7539 47.8787 19.6627C48.141 19.5692 48.3999 19.4501 48.6354 19.3022C48.868 19.1561 49.0708 18.9612 49.2843 18.7857C49.6433 18.4894 49.9544 18.1457 50.2446 17.7843C50.4702 17.5031 50.6832 17.211 50.8874 16.9137C50.9807 16.7773 51.0433 16.6196 51.1099 16.4672C51.1225 16.4382 51.0985 16.3688 51.0721 16.3543C51.0458 16.3399 50.9813 16.3568 50.9547 16.3821C50.7171 16.6059 50.4971 16.8502 50.2468 17.0582C49.8128 17.419 49.3756 17.7789 48.8697 18.0406C48.7657 18.0943 48.6652 18.1542 48.5602 18.2069C48.4012 18.2864 48.2467 18.3794 48.0802 18.4379C47.812 18.5332 47.539 18.6144 47.2624 18.6814C46.7846 18.795 46.3263 18.7434 45.9071 18.4677C45.8154 18.4074 45.781 18.3009 45.8163 18.1971C45.8999 17.9508 46.0479 17.7438 46.2252 17.5596C46.362 17.4178 46.5045 17.2794 46.6586 17.1573C46.8184 17.0296 46.9882 16.9151 47.1664 16.8148C47.3513 16.7125 47.5491 16.6316 47.7447 16.5496C47.9312 16.4714 48.114 16.4708 48.3083 16.556C48.4434 16.6152 48.6002 16.6294 48.7491 16.651C48.836 16.6637 48.9105 16.6283 48.9582 16.5423C49.0059 16.4564 49.0656 16.3784 49.1172 16.2952C49.2113 16.1433 49.2054 15.984 49.1446 15.823C49.0637 15.609 48.9686 15.4024 48.8152 15.2281C48.689 15.0839 48.5439 14.9763 48.3418 15.0183C48.0893 15.0706 47.8401 15.1388 47.5879 15.1956C47.5443 15.2052 47.4779 15.2056 47.4505 15.1799C47.2801 15.0196 47.0992 14.8646 46.9575 14.6804C46.837 14.5236 46.7262 14.3394 46.6809 14.1499C46.6261 13.9214 46.629 13.6747 46.6354 13.4367C46.6447 13.1084 46.7665 12.8087 46.9119 12.5161C47.0712 12.1963 47.2767 11.9018 47.5218 11.642C47.7444 11.4045 47.9843 11.1824 48.226 10.9637C48.3718 10.8318 48.5308 10.7137 48.6917 10.6C48.8734 10.4714 49.0629 10.3522 49.2522 10.2341C49.3806 10.1546 49.508 10.0665 49.6474 10.0117C49.8867 9.9156 50.1318 9.83474 50.3812 9.76962C50.5563 9.72518 50.7416 9.7203 50.923 9.70291C51.0189 9.69381 51.087 9.74837 51.0831 9.84089C51.0737 10.0559 51.0689 10.2748 51.023 10.4835C50.9837 10.6625 50.9055 10.8381 50.8168 11.0001C50.673 11.2625 50.5285 11.5299 50.3439 11.763C50.1353 12.0262 49.8937 12.2672 49.644 12.4927C49.4749 12.6454 49.2739 12.7679 49.0737 12.8791C48.9374 12.955 48.7784 12.9908 48.6283 13.0403C48.5476 13.0669 48.5107 13.1229 48.5071 13.2016C48.5034 13.2873 48.5614 13.3258 48.6355 13.3349C48.7219 13.3456 48.8102 13.3543 48.8967 13.3481C49.1693 13.3283 49.4432 13.3118 49.6977 13.1875C49.864 13.1062 50.0498 13.0615 50.2088 12.9696C50.3978 12.8602 50.5723 12.7232 50.745 12.5885C51.1497 12.2738 51.4588 11.8739 51.7238 11.4405C51.8989 11.1547 52.0258 10.8419 52.0993 10.5148C52.1447 10.3117 52.1616 10.1083 52.0817 9.90783C51.9473 9.57106 51.6911 9.32761 51.429 9.09847C51.2081 8.90525 50.9553 8.74851 50.7146 8.57859C50.512 8.43561 50.2839 8.39833 50.0409 8.42424C49.6693 8.46135 49.3089 8.57249 48.9809 8.75113C48.6694 8.92162 48.3411 9.06937 48.0528 9.27271C47.7381 9.49514 47.4537 9.76292 47.1689 10.0248C46.8255 10.3404 46.538 10.7075 46.2914 11.1016C46.1009 11.4082 45.9436 11.7342 45.8223 12.0742C45.6895 12.4416 45.5812 12.8103 45.5497 13.2008C45.52 13.5379 45.6053 13.8751 45.7919 14.1574C45.9319 14.3727 46.0833 14.5854 46.2592 14.7712C46.4375 14.9593 46.6534 15.1114 46.8499 15.2826C46.8914 15.3189 46.9521 15.3761 46.9458 15.4142C46.9366 15.4701 46.8817 15.5247 46.8343 15.5663C46.796 15.5999 46.7352 15.6063 46.693 15.6368C46.5122 15.7677 46.3296 15.8971 46.157 16.0386C46.0077 16.1612 45.8575 16.2878 45.7323 16.4339C45.5592 16.6345 45.4003 16.8468 45.2567 17.0695C45.0875 17.3342 44.9754 17.6289 45.0619 17.9475C45.1158 18.1465 45.2081 18.3372 45.3004 18.5231C45.4634 18.8543 45.6848 19.1532 45.9541 19.4056C46.2727 19.7042 46.6346 19.8714 47.0796 19.8259V19.8259Z"/>
</mask>
<path d="M57.8895 13.9024C57.9434 14.5672 57.8214 15.2191 57.7432 15.873C57.7066 16.1812 57.6138 16.483 57.541 16.7865C57.4852 17.0192 57.4258 17.2514 57.3585 17.4813C57.3085 17.6525 57.2464 17.8205 57.184 17.9878C57.1122 18.1799 57.0402 18.3724 56.9568 18.5595C56.8538 18.7919 56.7443 19.0213 56.6284 19.2478C56.5285 19.4439 56.4198 19.636 56.3091 19.8264C56.2042 20.0069 56.1011 20.1894 55.9806 20.3593C55.7717 20.6536 55.5637 20.9504 55.3302 21.2247C55.069 21.5316 54.7856 21.8201 54.5011 22.1056C54.3166 22.2906 54.1172 22.4618 53.9155 22.6284C53.7523 22.7632 53.578 22.885 53.4044 23.0068C53.2188 23.1373 53.0296 23.2632 52.8397 23.3872C52.7424 23.4529 52.641 23.5123 52.5361 23.565C52.2838 23.687 52.0288 23.8037 51.7733 23.9187C51.5935 23.9996 51.4133 24.0806 51.2291 24.1502C51.0591 24.216 50.8852 24.2716 50.7086 24.3167C50.4133 24.3891 50.1156 24.4525 49.8171 24.5099C49.2028 24.6285 48.5762 24.671 47.9515 24.6365C47.411 24.6071 46.8758 24.5357 46.3515 24.3945C46.0949 24.3254 45.8351 24.2659 45.5821 24.1857C45.3875 24.1239 45.2 24.039 45.0113 23.9595C44.8647 23.8977 44.7193 23.8323 44.577 23.7613C44.4049 23.6752 44.2344 23.5854 44.0672 23.4902C43.8628 23.3743 43.6602 23.2564 43.4633 23.1291C43.295 23.0201 43.1308 22.9031 42.974 22.7779C42.7607 22.6074 42.5481 22.4344 42.3493 22.2469C42.0848 21.9968 41.8245 21.7404 41.5809 21.4699C41.3567 21.2215 41.1469 20.9604 40.9526 20.6879C40.7376 20.3851 40.5397 20.0688 40.3514 19.7485C40.1823 19.4611 40.0261 19.1649 39.8831 18.8636C39.7597 18.6035 39.6602 18.3318 39.5546 18.0633C39.4824 17.8794 39.4146 17.6938 39.3513 17.5064C39.2945 17.3371 39.2378 17.167 39.1969 16.9933C39.1304 16.708 39.0875 16.4171 39.0168 16.1329C38.8899 15.6224 38.8751 15.0986 38.8228 14.58C38.766 14.0172 38.7813 13.4526 38.8544 12.8908C38.9139 12.4341 38.9648 11.9757 39.0418 11.5219C39.0913 11.2303 39.1781 10.9445 39.2546 10.6581C39.3107 10.449 39.3739 10.2414 39.4416 10.0357C39.4974 9.86601 39.5608 9.69859 39.6271 9.53276C39.6906 9.37421 39.7583 9.21713 39.8316 9.06278C39.9484 8.81614 40.0637 8.56825 40.1941 8.32866C40.3263 8.08554 40.464 7.84367 40.6207 7.61613C40.8725 7.25038 41.1271 6.88439 41.4086 6.54171C41.6665 6.22597 41.946 5.92856 42.2452 5.65165C42.5651 5.35761 42.9153 5.09631 43.2597 4.82921C43.4356 4.69182 43.6196 4.56527 43.8109 4.45028C44.0316 4.31832 44.2629 4.20398 44.4917 4.08577C44.6463 4.00621 44.8028 3.92915 44.9614 3.85732C45.1062 3.79162 45.2519 3.72547 45.4025 3.67546C45.6219 3.60238 45.8443 3.53646 46.0687 3.48031C46.3339 3.41382 46.6034 3.36472 46.8694 3.30141C47.5529 3.13854 48.2469 3.17855 48.9401 3.18366C49.3867 3.18696 49.8155 3.30153 50.2503 3.37381C50.5101 3.41712 50.7607 3.51884 51.0139 3.59897C51.2163 3.66307 51.419 3.72763 51.6168 3.80435C51.7824 3.86857 51.9424 3.9479 52.1023 4.02576C52.2317 4.08884 52.3597 4.15544 52.4841 4.22796C52.7193 4.36503 52.9565 4.49972 53.1834 4.64963C53.4359 4.81648 53.6841 4.99152 53.9228 5.17747C54.1155 5.32583 54.2976 5.48734 54.468 5.66086C54.8007 6.00399 55.1381 6.34531 55.4398 6.71493C55.7124 7.04943 55.9555 7.41132 56.1846 7.77798C56.4055 8.13135 56.6023 8.50096 56.7896 8.87354C56.9172 9.12711 57.0168 9.39546 57.1166 9.66199C57.2372 9.98554 57.3501 10.3121 57.4551 10.6416C57.5192 10.8368 57.5709 11.0359 57.6099 11.2376C57.6781 11.6042 57.7435 11.9722 57.7864 12.3424C57.8465 12.8602 57.8849 13.3806 57.9325 13.8995L57.8895 13.9024ZM47.0796 19.8259L47.0861 19.8607C47.351 19.7966 47.6235 19.7539 47.8787 19.6627C48.141 19.5692 48.3999 19.4501 48.6354 19.3022C48.868 19.1561 49.0708 18.9612 49.2843 18.7857C49.6433 18.4894 49.9544 18.1457 50.2446 17.7843C50.4702 17.5031 50.6832 17.211 50.8874 16.9137C50.9807 16.7773 51.0433 16.6196 51.1099 16.4672C51.1225 16.4382 51.0985 16.3688 51.0721 16.3543C51.0458 16.3399 50.9813 16.3568 50.9547 16.3821C50.7171 16.6059 50.4971 16.8502 50.2468 17.0582C49.8128 17.419 49.3756 17.7789 48.8697 18.0406C48.7657 18.0943 48.6652 18.1542 48.5602 18.2069C48.4012 18.2864 48.2467 18.3794 48.0802 18.4379C47.812 18.5332 47.539 18.6144 47.2624 18.6814C46.7846 18.795 46.3263 18.7434 45.9071 18.4677C45.8154 18.4074 45.781 18.3009 45.8163 18.1971C45.8999 17.9508 46.0479 17.7438 46.2252 17.5596C46.362 17.4178 46.5045 17.2794 46.6586 17.1573C46.8184 17.0296 46.9882 16.9151 47.1664 16.8148C47.3513 16.7125 47.5491 16.6316 47.7447 16.5496C47.9312 16.4714 48.114 16.4708 48.3083 16.556C48.4434 16.6152 48.6002 16.6294 48.7491 16.651C48.836 16.6637 48.9105 16.6283 48.9582 16.5423C49.0059 16.4564 49.0656 16.3784 49.1172 16.2952C49.2113 16.1433 49.2054 15.984 49.1446 15.823C49.0637 15.609 48.9686 15.4024 48.8152 15.2281C48.689 15.0839 48.5439 14.9763 48.3418 15.0183C48.0893 15.0706 47.8401 15.1388 47.5879 15.1956C47.5443 15.2052 47.4779 15.2056 47.4505 15.1799C47.2801 15.0196 47.0992 14.8646 46.9575 14.6804C46.837 14.5236 46.7262 14.3394 46.6809 14.1499C46.6261 13.9214 46.629 13.6747 46.6354 13.4367C46.6447 13.1084 46.7665 12.8087 46.9119 12.5161C47.0712 12.1963 47.2767 11.9018 47.5218 11.642C47.7444 11.4045 47.9843 11.1824 48.226 10.9637C48.3718 10.8318 48.5308 10.7137 48.6917 10.6C48.8734 10.4714 49.0629 10.3522 49.2522 10.2341C49.3806 10.1546 49.508 10.0665 49.6474 10.0117C49.8867 9.9156 50.1318 9.83474 50.3812 9.76962C50.5563 9.72518 50.7416 9.7203 50.923 9.70291C51.0189 9.69381 51.087 9.74837 51.0831 9.84089C51.0737 10.0559 51.0689 10.2748 51.023 10.4835C50.9837 10.6625 50.9055 10.8381 50.8168 11.0001C50.673 11.2625 50.5285 11.5299 50.3439 11.763C50.1353 12.0262 49.8937 12.2672 49.644 12.4927C49.4749 12.6454 49.2739 12.7679 49.0737 12.8791C48.9374 12.955 48.7784 12.9908 48.6283 13.0403C48.5476 13.0669 48.5107 13.1229 48.5071 13.2016C48.5034 13.2873 48.5614 13.3258 48.6355 13.3349C48.7219 13.3456 48.8102 13.3543 48.8967 13.3481C49.1693 13.3283 49.4432 13.3118 49.6977 13.1875C49.864 13.1062 50.0498 13.0615 50.2088 12.9696C50.3978 12.8602 50.5723 12.7232 50.745 12.5885C51.1497 12.2738 51.4588 11.8739 51.7238 11.4405C51.8989 11.1547 52.0258 10.8419 52.0993 10.5148C52.1447 10.3117 52.1616 10.1083 52.0817 9.90783C51.9473 9.57106 51.6911 9.32761 51.429 9.09847C51.2081 8.90525 50.9553 8.74851 50.7146 8.57859C50.512 8.43561 50.2839 8.39833 50.0409 8.42424C49.6693 8.46135 49.3089 8.57249 48.9809 8.75113C48.6694 8.92162 48.3411 9.06937 48.0528 9.27271C47.7381 9.49514 47.4537 9.76292 47.1689 10.0248C46.8255 10.3404 46.538 10.7075 46.2914 11.1016C46.1009 11.4082 45.9436 11.7342 45.8223 12.0742C45.6895 12.4416 45.5812 12.8103 45.5497 13.2008C45.52 13.5379 45.6053 13.8751 45.7919 14.1574C45.9319 14.3727 46.0833 14.5854 46.2592 14.7712C46.4375 14.9593 46.6534 15.1114 46.8499 15.2826C46.8914 15.3189 46.9521 15.3761 46.9458 15.4142C46.9366 15.4701 46.8817 15.5247 46.8343 15.5663C46.796 15.5999 46.7352 15.6063 46.693 15.6368C46.5122 15.7677 46.3296 15.8971 46.157 16.0386C46.0077 16.1612 45.8575 16.2878 45.7323 16.4339C45.5592 16.6345 45.4003 16.8468 45.2567 17.0695C45.0875 17.3342 44.9754 17.6289 45.0619 17.9475C45.1158 18.1465 45.2081 18.3372 45.3004 18.5231C45.4634 18.8543 45.6848 19.1532 45.9541 19.4056C46.2727 19.7042 46.6346 19.8714 47.0796 19.8259V19.8259Z" stroke="#E2DCC8" stroke-width="3.37838" mask="url(#path-2-outside-1_450_73)"/>
</svg>
