<svg width="40" height="40" viewBox="0 0 40 40" fill="none" xmlns="http://www.w3.org/2000/svg">
<path d="M19.8531 19.9999C19.8531 16.7272 22.5062 14.074 25.779 14.074C29.0517 14.074 31.7049 16.7272 31.7049 19.9999C31.7049 23.2727 29.0517 25.9258 25.779 25.9258C22.5062 25.9258 19.8531 23.2727 19.8531 19.9999Z" fill="#1ABCFE"/>
<path d="M8 31.8519C8 28.5791 10.6531 25.926 13.9259 25.926H19.8517V31.8519C19.8517 35.1247 17.1986 37.7778 13.9259 37.7778C10.6531 37.7778 8 35.1247 8 31.8519Z" fill="#0ACF83"/>
<path d="M19.8531 2.22223V14.074H25.779C29.0518 14.074 31.7049 11.4209 31.7049 8.14814C31.7049 4.87535 29.0518 2.22223 25.779 2.22223H19.8531Z" fill="#FF7262"/>
<path d="M8 8.14814C8 11.4209 10.6531 14.074 13.9259 14.074H19.8517V2.22223H13.9259C10.6531 2.22223 8 4.87535 8 8.14814Z" fill="#F24E1E"/>
<path d="M8 19.9999C8 23.2727 10.6531 25.9258 13.9259 25.9258H19.8517V14.074H13.9259C10.6531 14.074 8 16.7272 8 19.9999Z" fill="#A259FF"/>
</svg>
