<svg width="40" height="40" viewBox="0 0 40 40" fill="none" xmlns="http://www.w3.org/2000/svg">
<g clip-path="url(#clip0_473_5357)">
<path d="M19.9991 0.065918C8.98745 0.065918 0.0603027 8.99282 0.0603027 20.0045C0.0603027 31.0166 8.98745 39.9428 19.9991 39.9428C31.012 39.9428 39.9382 31.0166 39.9382 20.0045C39.9382 8.99354 31.012 0.0668703 19.9989 0.0668703L19.9991 0.065918V0.065918ZM29.1429 28.8231C28.7858 29.4088 28.0191 29.5945 27.4334 29.235C22.752 26.3754 16.8586 25.7278 9.91816 27.3135C9.24935 27.4659 8.58268 27.0469 8.4303 26.3778C8.27721 25.7088 8.69459 25.0421 9.36507 24.8897C16.9603 23.1538 23.4753 23.9016 28.731 27.1135C29.3167 27.4731 29.5024 28.2373 29.1429 28.8231V28.8231ZM31.5834 23.3933C31.1334 24.1254 30.1763 24.3564 29.4453 23.9064C24.0858 20.6114 15.916 19.6573 9.57673 21.5816C8.75459 21.83 7.88626 21.3666 7.63673 20.5459C7.38911 19.7238 7.85268 18.8571 8.6734 18.6071C15.9146 16.41 24.9167 17.4743 31.0715 21.2564C31.8024 21.7064 32.0334 22.6635 31.5834 23.3935V23.3933ZM31.7929 17.74C25.3667 13.9231 14.7644 13.5721 8.62887 15.4342C7.64364 15.7331 6.60173 15.1769 6.30316 14.1916C6.00459 13.2059 6.5603 12.1647 7.54626 11.8652C14.5894 9.72711 26.2977 10.1402 33.6963 14.5323C34.5843 15.0583 34.8748 16.2028 34.3486 17.0878C33.8248 17.974 32.6772 18.2662 31.7939 17.74H31.7929Z" fill="#1ED760"/>
</g>
<defs>
<clipPath id="clip0_473_5357">
<rect width="40" height="40" fill="white"/>
</clipPath>
</defs>
</svg>
