<svg width="40" height="40" viewBox="0 0 40 40" fill="none" xmlns="http://www.w3.org/2000/svg">
<g clip-path="url(#clip0_473_5347)">
<path d="M0.251831 23.3745L16.6255 39.7482C8.26401 38.3348 1.66521 31.736 0.251831 23.3745Z" fill="#5E6AD2"/>
<path d="M0 18.9293L21.0707 40C22.3239 39.9331 23.5464 39.7508 24.7278 39.4638L0.536244 15.2722C0.249174 16.4537 0.0669562 17.6762 0 18.9293Z" fill="#5E6AD2"/>
<path d="M1.58496 12.1276L27.8724 38.415C28.8298 38.0041 29.7488 37.5206 30.6223 36.9716L3.0284 9.37769C2.47932 10.2512 1.99587 11.1701 1.58496 12.1276Z" fill="#5E6AD2"/>
<path d="M4.80933 6.96544C8.47976 2.70058 13.9173 0 19.9855 0C31.0392 0 39.9999 8.96075 39.9999 20.0144C39.9999 26.0827 37.2994 31.5202 33.0345 35.1906L4.80933 6.96544Z" fill="#5E6AD2"/>
</g>
<defs>
<clipPath id="clip0_473_5347">
<rect width="40" height="40" fill="white"/>
</clipPath>
</defs>
</svg>
