<svg width="125" height="18" viewBox="0 0 125 18" fill="none" xmlns="http://www.w3.org/2000/svg">
<path fill-rule="evenodd" clip-rule="evenodd" d="M0 0H4.08381H8.96662L9.94318 4.08381H4.0838V13.6719H6.74716V17.7557H4.08381H0V0Z" fill="#E2DCC8"/>
<path d="M11.0973 12.429L14.3821 17.7557H7.8125L11.0973 12.429Z" fill="#FFCA00"/>
<path fill-rule="evenodd" clip-rule="evenodd" d="M18.1108 0H13.228L12.2515 4.08381H18.1108L18.1108 13.6719H15.4475V17.7557H18.1108H22.1946V0H18.1108Z" fill="#E2DCC8"/>
<path d="M29.8499 2.37237H34.474C35.8764 2.37237 36.9819 2.72272 37.7905 3.4234C38.5991 4.11157 39.0034 5.05624 39.0034 6.25742C39.0034 7.30844 38.6812 8.13425 38.0369 8.73483C39.136 9.29788 39.6856 10.2363 39.6856 11.5501C39.6856 12.7387 39.2687 13.6959 38.4348 14.4216C37.6136 15.1473 36.5018 15.5102 35.0994 15.5102H29.8499V2.37237ZM35.0994 10.3114H33.1284V12.4885H35.0994C35.8827 12.4885 36.2744 12.1319 36.2744 11.4187C36.2744 10.6805 35.8827 10.3114 35.0994 10.3114ZM34.474 5.39407H33.1284V7.55243H34.474C34.8404 7.55243 35.1247 7.46484 35.3268 7.28967C35.5416 7.10199 35.649 6.85175 35.649 6.53894C35.649 5.7757 35.2573 5.39407 34.474 5.39407Z" fill="#E2DCC8"/>
<path d="M46.0758 5.7319C47.554 5.7319 48.7922 6.19485 49.7903 7.12076C50.7884 8.03415 51.2874 9.23532 51.2874 10.7243C51.2874 12.2132 50.7884 13.4144 49.7903 14.3278C48.7922 15.2537 47.554 15.7166 46.0758 15.7166C44.6102 15.7166 43.3784 15.2537 42.3803 14.3278C41.3948 13.4144 40.9021 12.2132 40.9021 10.7243C40.9021 9.23532 41.3948 8.03415 42.3803 7.12076C43.3784 6.19485 44.6102 5.7319 46.0758 5.7319ZM47.5161 9.12897C47.1623 8.71606 46.6886 8.50961 46.0947 8.50961C45.5136 8.50961 45.0335 8.71606 44.6544 9.12897C44.288 9.55438 44.1049 10.0799 44.1049 10.7055C44.1049 11.3311 44.288 11.8629 44.6544 12.3008C45.0335 12.7262 45.5136 12.9389 46.0947 12.9389C46.6886 12.9389 47.1623 12.7262 47.5161 12.3008C47.8951 11.8629 48.0846 11.3311 48.0846 10.7055C48.0846 10.0674 47.8951 9.54187 47.5161 9.12897Z" fill="#E2DCC8"/>
<path d="M59.7429 1.80933H62.8319V15.5102H60.2166L59.9703 14.309C59.3259 15.2474 58.3657 15.7166 57.0897 15.7166C55.8389 15.7166 54.7776 15.2349 53.9058 14.2715C53.0467 13.308 52.6171 12.1256 52.6171 10.7243C52.6171 9.32291 53.0467 8.1405 53.9058 7.17706C54.7776 6.21362 55.8389 5.7319 57.0897 5.7319C58.2899 5.7319 59.1743 6.0885 59.7429 6.8017V1.80933ZM59.1933 9.14774C58.8016 8.78488 58.3341 8.60345 57.7909 8.60345C57.2476 8.60345 56.7801 8.79739 56.3885 9.18527C56.0094 9.56064 55.8199 10.0736 55.8199 10.7243C55.8199 11.3624 56.0094 11.8817 56.3885 12.282C56.6664 12.5573 57.0075 12.7325 57.4118 12.8076C57.8161 12.8701 58.1952 12.8388 58.5489 12.7137C58.9153 12.5886 59.2185 12.3509 59.4586 12.0005C59.7113 11.6502 59.8313 11.231 59.8187 10.743V10.6117C59.806 9.99857 59.5976 9.51059 59.1933 9.14774Z" fill="#E2DCC8"/>
<path d="M69.5751 2.37237H71.8492L77.0988 15.5102H74.7678L73.498 12.3008H67.9074L66.6566 15.5102H64.3255L69.5751 2.37237ZM70.9396 5.71313L70.6932 4.99994L70.4468 5.71313L68.6086 10.4052H72.8158L70.9396 5.71313Z" fill="#E2DCC8"/>
<path d="M85.5711 1.80933H87.5799V15.5102H85.8175L85.6848 14.1776C84.9646 15.2036 83.9034 15.7166 82.501 15.7166C81.1996 15.7166 80.132 15.2474 79.2982 14.309C78.4643 13.3581 78.0474 12.1757 78.0474 10.7618C78.0474 9.34793 78.4643 8.17178 79.2982 7.23337C80.1447 6.28244 81.2186 5.80698 82.5199 5.80698C83.8844 5.80698 84.9015 6.26993 85.5711 7.19583V1.80933ZM82.88 7.70258C82.084 7.70258 81.427 7.99036 80.909 8.56592C80.391 9.12897 80.132 9.86093 80.132 10.7618C80.132 11.6752 80.3847 12.4197 80.8901 12.9952C81.3955 13.5583 82.0524 13.8398 82.861 13.8398C83.6065 13.8398 84.2445 13.5708 84.7751 13.0328C85.3184 12.4947 85.59 11.7628 85.59 10.8369V10.743C85.59 9.81714 85.3184 9.08517 84.7751 8.54715C84.2318 7.9841 83.6001 7.70258 82.88 7.70258Z" fill="#E2DCC8"/>
<path d="M100.436 5.80698C101.422 5.80698 102.18 6.12604 102.71 6.76416C103.241 7.38977 103.506 8.25311 103.506 9.35419V15.5102H101.497V9.74832C101.497 8.42203 100.96 7.75888 99.8865 7.75888C99.3053 7.75888 98.8315 8.00287 98.4651 8.49084C98.0987 8.96631 97.9155 9.6232 97.9155 10.4615V15.5102H95.9067V9.74832C95.9067 8.42203 95.3697 7.75888 94.2958 7.75888C93.702 7.75888 93.2282 7.99661 92.8745 8.47208C92.5207 8.94754 92.3438 9.61069 92.3438 10.4615V15.5102H90.335V6.01343H92.0785L92.2301 7.28967C92.7608 6.30121 93.6262 5.80698 94.8265 5.80698C96.2036 5.80698 97.1259 6.39505 97.5934 7.5712C98.2124 6.39505 99.16 5.80698 100.436 5.80698Z" fill="#E2DCC8"/>
<path d="M106.16 6.01343H108.168V15.5102H106.16V6.01343ZM107.164 1.90317C107.53 1.87814 107.84 2.00326 108.093 2.27853C108.358 2.5538 108.484 2.8541 108.472 3.17941C108.472 3.50473 108.345 3.79877 108.093 4.06152C107.815 4.28674 107.505 4.40561 107.164 4.41812C106.823 4.41812 106.513 4.29926 106.235 4.06152C105.97 3.82379 105.85 3.52975 105.875 3.17941C105.875 2.81656 106.002 2.51627 106.254 2.27853C106.507 2.02829 106.81 1.90317 107.164 1.90317Z" fill="#E2DCC8"/>
<path d="M115.5 5.80698C116.485 5.80698 117.25 6.12604 117.793 6.76416C118.336 7.40228 118.608 8.26562 118.608 9.35419V15.5102H116.58V9.74832C116.58 9.09769 116.435 8.60345 116.144 8.26562C115.866 7.9278 115.468 7.75888 114.95 7.75888C114.357 7.75888 113.876 7.99661 113.51 8.47208C113.156 8.94754 112.979 9.61069 112.979 10.4615V15.5102H110.971V6.01343H112.714L112.866 7.28967C113.396 6.30121 114.274 5.80698 115.5 5.80698Z" fill="#E2DCC8"/>
<path d="M122.869 11.3636C122.59 11.3636 122.312 11.4188 122.054 11.5258C121.795 11.6329 121.561 11.7899 121.363 11.9877C120.963 12.3873 120.739 12.9292 120.739 13.4943C120.739 14.0594 120.963 14.6014 121.363 15.0009C121.561 15.1988 121.795 15.3557 122.054 15.4628C122.312 15.5699 122.59 15.625 122.869 15.625C123.434 15.625 123.976 15.4005 124.376 15.0009C124.776 14.6014 125 14.0594 125 13.4943C125 13.2145 124.945 12.9375 124.838 12.679C124.731 12.4204 124.574 12.1856 124.376 11.9877C124.178 11.7899 123.943 11.6329 123.685 11.5258C123.426 11.4188 123.149 11.3636 122.869 11.3636V11.3636ZM122.869 15.1989C121.93 15.1989 121.165 14.434 121.165 13.4943C121.165 12.5547 121.93 11.7898 122.869 11.7898C123.809 11.7898 124.574 12.5547 124.574 13.4943C124.574 14.434 123.809 15.1989 122.869 15.1989ZM122.923 13.7649H122.616V14.4531H122.23V12.5803H122.925C123.144 12.5803 123.315 12.6293 123.436 12.7273C123.555 12.8274 123.615 12.9617 123.615 13.1449C123.615 13.2727 123.587 13.3793 123.532 13.4645C123.477 13.5497 123.393 13.6179 123.281 13.6669L123.685 14.4318V14.4531H123.272L122.923 13.7649ZM122.616 13.4538H122.927C123.023 13.4538 123.097 13.4283 123.151 13.3793C123.204 13.3303 123.229 13.2621 123.229 13.1747C123.229 13.0874 123.206 13.0192 123.155 12.9681C123.106 12.9169 123.029 12.8935 122.925 12.8935H122.616V13.4538Z" fill="#E2DCC8"/>
</svg>
