<svg width="40" height="40" viewBox="0 0 40 40" fill="none" xmlns="http://www.w3.org/2000/svg">
<g clip-path="url(#clip0_473_5317)">
<path d="M8.66528 0H31.3347C36.1173 0 40 3.88281 40 8.66528V31.3347C40 36.1173 36.1173 40 31.3347 40H8.66528C3.88281 40 0 36.1173 0 31.3347V8.66528C0 3.88281 3.88281 0 8.66528 0Z" fill="#FFD02F"/>
<path d="M27.7952 4.99548H23.4033L27.0614 11.4234L19.0116 4.99548H14.6197L18.6446 12.8558L10.2279 4.99548H5.83606L10.2279 14.9984L5.83606 35.0044H10.2279L18.6446 13.5661L14.6197 35.0044H19.0116L27.0614 12.1455L23.4033 35.0044H27.7952L35.845 9.99104L27.7952 4.99548Z" fill="#050038"/>
</g>
<defs>
<clipPath id="clip0_473_5317">
<rect width="40" height="40" fill="white"/>
</clipPath>
</defs>
</svg>
